<svg width="65" height="65" viewBox="0 0 65 65" fill="none" xmlns="http://www.w3.org/2000/svg">
<path d="M61.9052 3.0957L10.3342 17.063C6.06314 18.2195 3.0957 22.0961 3.0957 26.524V61.9052L54.6667 47.938C58.9403 46.7814 61.9052 42.9048 61.9052 38.4769V3.0957Z" fill="#26E36B"/>
<path d="M55.7934 32.0195C56.9608 31.3153 57.5105 30.3214 57.5105 28.9402V26.9061C57.5105 23.7536 55.547 22.2207 51.5088 22.2207H43.3242V42.777H52.1371C56.0074 42.777 58.2283 40.9272 58.2283 37.7043V35.7597C58.2283 34.1211 57.2587 32.6749 55.7934 32.0222V32.0195ZM48.1099 25.9582H51.0592C52.6409 25.9582 52.825 26.7003 52.825 27.2582V29.3356C52.825 30.1615 52.1805 30.6382 51.0592 30.6382H48.1099V25.961V25.9582ZM53.5645 37.3522C53.5645 38.571 52.8278 39.0477 50.9374 39.0477H48.1099V34.262H51.6876C52.9308 34.262 53.5617 34.809 53.5617 35.8843V37.3522H53.5645Z" fill="#004045"/>
<path d="M35.225 22.2207H28.7304L22.4688 42.777H27.815L28.8875 38.8906H35.0705L36.143 42.777H41.4893L35.2276 22.2207H35.225ZM29.9572 34.8606L31.9776 27.4315L33.998 34.8606H29.9572Z" fill="#004045"/>
<path d="M8.125 22.2207V26.8357H13.4767V42.777H13.4794H18.6008H18.6035V26.8357H23.9551V22.2207H8.125Z" fill="#004045"/>
</svg>
